<mxfile host="app.diagrams.net" modified="2024-01-08T07:05:37.964Z" agent="Mozilla/5.0 (Windows NT 10.0; Win64; x64) AppleWebKit/537.36 (KHTML, like Gecko) Chrome/120.0.0.0 Whale/3.24.223.18 Safari/537.36" version="22.1.17" etag="sw-YymASyuTvcBv7vpT7" type="github">
  <diagram name="페이지-1" id="6mVrtvFzZ4gnA3ImutVb">
    <mxGraphModel>
      <root>
        <mxCell id="0" />
        <mxCell id="1" parent="0" />
      </root>
    </mxGraphModel>
  </diagram>
</mxfile>
